<?xml version="1.0" encoding="UTF-8"?>
<svg width="512" height="512" viewBox="0 0 512 512" fill="none" xmlns="http://www.w3.org/2000/svg">
  <rect width="512" height="512" rx="80" fill="#00005B"/>
  <path d="M120 120 L120 392 L180 392 L180 292 L220 292 C280 292 320 252 320 206 C320 160 280 120 220 120 L120 120 Z M180 180 L220 180 C240 180 260 190 260 206 C260 222 240 232 220 232 L180 232 L180 180 Z" fill="#9999FF"/>
  <path d="M360 240 L360 392 L300 392 L300 240 L360 240 Z M300 180 C300 160 316 144 336 144 C356 144 372 160 372 180 C372 200 356 216 336 216 C316 216 300 200 300 180 Z" fill="#9999FF"/>
</svg> 