<?xml version="1.0" encoding="UTF-8"?>
<svg width="512" height="512" viewBox="0 0 512 512" fill="none" xmlns="http://www.w3.org/2000/svg">
  <path d="M180 160C180 160 170 180 200 240C230 300 280 320 280 320C280 320 260 270 240 220C220 170 180 160 180 160Z" fill="#FF9900"/>
  <path d="M332 160C332 160 342 180 312 240C282 300 232 320 232 320C232 320 252 270 272 220C292 170 332 160 332 160Z" fill="#FF9900"/>
  <path d="M256 352C360 352 400 320 400 320C400 320 370 400 256 400C142 400 112 320 112 320C112 320 152 352 256 352Z" fill="#FF9900"/>
</svg> 