<?xml version="1.0" encoding="UTF-8"?>
<svg width="512" height="512" viewBox="0 0 512 512" fill="none" xmlns="http://www.w3.org/2000/svg">
  <path d="M384 256C384 326.692 326.692 384 256 384C185.308 384 128 326.692 128 256C128 185.308 185.308 128 256 128C326.692 128 384 185.308 384 256ZM256 160C203.072 160 160 203.072 160 256C160 308.928 203.072 352 256 352C308.928 352 352 308.928 352 256C352 203.072 308.928 160 256 160Z" fill="#4285F4"/>
  <path d="M320 224C320 241.673 305.673 256 288 256C270.327 256 256 241.673 256 224C256 206.327 270.327 192 288 192C305.673 192 320 206.327 320 224Z" fill="#4285F4"/>
  <path d="M288 288L352 320C352 320 336 352 288 352C240 352 224 320 224 320L288 288Z" fill="#4285F4"/>
</svg>