<?xml version="1.0" encoding="UTF-8"?>
<svg width="512" height="512" viewBox="0 0 512 512" fill="none" xmlns="http://www.w3.org/2000/svg">
  <circle cx="256" cy="256" r="256" fill="#000000"/>
  <path d="M256 128C256 128 192 192 192 256C192 320 256 384 256 384C256 384 320 320 320 256C320 192 256 128 256 128Z" fill="#FF6B6B"/>
  <path d="M128 256C128 256 192 192 256 192C320 192 384 256 384 256C384 256 320 320 256 320C192 320 128 256 128 256Z" fill="#4ECDC4"/>
  <path d="M192 192L256 256L320 192L256 128L192 192Z" fill="#FFE66D"/>
  <path d="M192 320L256 256L320 320L256 384L192 320Z" fill="#FF6B6B"/>
  <circle cx="256" cy="256" r="32" fill="#FFFFFF"/>
</svg>