<?xml version="1.0" encoding="UTF-8"?>
<svg width="512" height="512" viewBox="0 0 512 512" fill="none" xmlns="http://www.w3.org/2000/svg">
  <path d="M256 64C176.5 64 112 128.5 112 208C112 287.5 176.5 352 256 352C335.5 352 400 287.5 400 208C400 128.5 335.5 64 256 64ZM256 320C194.1 320 144 269.9 144 208C144 146.1 194.1 96 256 96C317.9 96 368 146.1 368 208C368 269.9 317.9 320 256 320Z" fill="#000000"/>
  <path d="M256 128C211.8 128 176 163.8 176 208C176 252.2 211.8 288 256 288C300.2 288 336 252.2 336 208C336 163.8 300.2 128 256 128ZM256 256C229.5 256 208 234.5 208 208C208 181.5 229.5 160 256 160C282.5 160 304 181.5 304 208C304 234.5 282.5 256 256 256Z" fill="#000000"/>
  <text x="128" y="416" font-family="Arial" font-size="48" font-weight="bold" fill="#000000">SORA</text>
</svg>