<?xml version="1.0" encoding="UTF-8"?>
<svg width="512" height="512" viewBox="0 0 512 512" fill="none" xmlns="http://www.w3.org/2000/svg">
  <rect width="512" height="512" rx="80" fill="#000000"/>
  <path d="M320 160C320 124.654 291.346 96 256 96C220.654 96 192 124.654 192 160C192 195.346 220.654 224 256 224C291.346 224 320 195.346 320 160Z" fill="#FFFFFF"/>
  <path d="M192 352C192 387.346 220.654 416 256 416C291.346 416 320 387.346 320 352C320 316.654 291.346 288 256 288C220.654 288 192 316.654 192 352Z" fill="#FFFFFF"/>
  <path d="M320 160C320 195.346 291.346 224 256 224C220.654 224 192 252.654 192 288" stroke="#FFFFFF" stroke-width="32"/>
</svg>